<svg xmlns="http://www.w3.org/2000/svg" width="888.501" height="284.578" viewBox="0 0 888.501 284.578">
  <g id="Group_68" data-name="Group 68" transform="translate(0 284.617)">
    <path id="Path_97" data-name="Path 97" d="M0-178.927H13.676v43.592h1.139L59.4-178.927h19.09L29.773-132.344l52,54.277H61.826L14.815-128.5H13.676v50.43H0Z" fill="#fff"/>
    <path id="Path_98" data-name="Path 98" d="M126.644-178.927h65.1v12.821H140.32v30.058h47.866v12.822H140.32v32.338h53.991v12.821H126.644Z" fill="#fff"/>
    <path id="Path_99" data-name="Path 99" d="M271.807-121.09l-38.179-57.837h17.523l27.494,44.3,28.35-44.3h16.666L285.483-121.09v43.022H271.807Z" fill="#fff"/>
    <path id="Path_100" data-name="Path 100" d="M372.523-99.151A22.455,22.455,0,0,0,382-90.96a28.3,28.3,0,0,0,11.895,2.636,24.237,24.237,0,0,0,6.981-1.068,21.257,21.257,0,0,0,6.481-3.2,17.528,17.528,0,0,0,4.773-5.272,14.027,14.027,0,0,0,1.851-7.264q0-5.841-3.7-8.9a32.062,32.062,0,0,0-9.188-5.128q-5.486-2.064-11.966-3.989a48.583,48.583,0,0,1-11.967-5.342,29.252,29.252,0,0,1-9.189-9.188q-3.705-5.771-3.7-15.6a26.186,26.186,0,0,1,1.923-9.4,26.17,26.17,0,0,1,6.055-9.118,33.4,33.4,0,0,1,10.612-6.909,39.493,39.493,0,0,1,15.6-2.778,54.479,54.479,0,0,1,15.812,2.279,27.184,27.184,0,0,1,13.248,9.26L416.4-159.838a18.46,18.46,0,0,0-7.266-6.41,22.993,22.993,0,0,0-10.683-2.422,25.883,25.883,0,0,0-9.474,1.5,17.015,17.015,0,0,0-6.055,3.845,13.618,13.618,0,0,0-3.2,5.058,15.461,15.461,0,0,0-.925,4.985q0,6.413,3.7,9.83a28.729,28.729,0,0,0,9.188,5.556,110.658,110.658,0,0,0,11.966,3.847,51.255,51.255,0,0,1,11.967,4.771,27.873,27.873,0,0,1,9.188,8.263q3.7,5.2,3.7,14.317A30.128,30.128,0,0,1,425.731-93.6a29.071,29.071,0,0,1-7.479,9.83,33.175,33.175,0,0,1-11.112,6.126A42.983,42.983,0,0,1,393.464-75.5a49.716,49.716,0,0,1-18.377-3.419,30.2,30.2,0,0,1-13.818-10.541Z" fill="#fff"/>
    <path id="Path_101" data-name="Path 101" d="M504.153-166.106H471.674v-12.821h78.635v12.821H517.83v88.039H504.153Z" fill="#fff"/>
    <path id="Path_102" data-name="Path 102" d="M673.107-178.927h17.949l55.559,82.911h.285v-82.911h13.676v100.86H743.2l-56.128-82.91h-.285v82.91H673.107Z" fill="#fff"/>
    <path id="Path_103" data-name="Path 103" d="M820.834-178.927h65.1v12.821H834.51v30.058h47.865v12.822H834.51v32.338H888.5v12.821H820.834Z" fill="#fff"/>
    <path id="Path_104" data-name="Path 104" d="M565.866-284.571H531.373c.057.247.107.414.146.577q20,72.922,40,145.856c.134.476.3.642.725.642q39.243-.017,78.477,0c.411,0,.582-.156.7-.616q20-72.927,40-145.859c.049-.186.1-.38.173-.646H657.1" fill="#c0b79c"/>
    <path id="Path_105" data-name="Path 105" d="M657.1-284.617h34.493c-.072.266-.124.459-.173.646q-20.008,72.927-40,145.859c-.118.46-.289.616-.7.616q-39.234-.017-78.476,0c-.428,0-.591-.166-.725-.642q-19.986-72.929-40-145.856c-.039-.164-.089-.33-.147-.577h34.494" fill="#c0b79c" fill-rule="evenodd"/>
    <path id="Path_106" data-name="Path 106" d="M611.064-176.023a37.112,37.112,0,0,0,15.67-3.206,37.161,37.161,0,0,0,11.968-8.618,38.04,38.04,0,0,0,7.691-12.75,44.709,44.709,0,0,0,2.706-15.6,44.729,44.729,0,0,0-2.706-15.6,38.07,38.07,0,0,0-7.691-12.75,37.208,37.208,0,0,0-11.968-8.619,37.142,37.142,0,0,0-15.67-3.2,37.131,37.131,0,0,0-15.671,3.2,37.145,37.145,0,0,0-11.966,8.619,37.96,37.96,0,0,0-7.693,12.75,44.707,44.707,0,0,0-2.706,15.6,44.686,44.686,0,0,0,2.706,15.6,37.93,37.93,0,0,0,7.693,12.75,37.1,37.1,0,0,0,11.966,8.618,37.1,37.1,0,0,0,15.671,3.206m0,12.821a54.364,54.364,0,0,1-21.227-4.06,49.386,49.386,0,0,1-16.6-11.183,51.6,51.6,0,0,1-10.826-16.81A55.276,55.276,0,0,1,558.5-216.2a55.294,55.294,0,0,1,3.918-20.941,51.643,51.643,0,0,1,10.826-16.81,49.415,49.415,0,0,1,16.6-11.183,54.364,54.364,0,0,1,21.227-4.06,54.366,54.366,0,0,1,21.226,4.06,49.474,49.474,0,0,1,16.6,11.183,51.724,51.724,0,0,1,10.826,16.81A55.332,55.332,0,0,1,663.63-216.2a55.313,55.313,0,0,1-3.918,20.941,51.681,51.681,0,0,1-10.826,16.81,49.445,49.445,0,0,1-16.6,11.183,54.366,54.366,0,0,1-21.226,4.06" fill="#fff"/>
    <g id="Group_67" data-name="Group 67" transform="translate(269.987 -11.039)">
      <g id="Group">
        <text id="R" fill="#fff" font-size="48" font-family="Helvetica"><tspan x="0" y="0">R</tspan></text>
        <text id="E" transform="translate(36.211)" fill="#fff" font-size="48" font-family="Helvetica"><tspan x="0" y="0">E</tspan></text>
        <text id="N" transform="translate(69.778)" fill="#fff" font-size="48" font-family="Helvetica"><tspan x="0" y="0">N</tspan></text>
        <text id="O" transform="translate(105.989)" fill="#fff" font-size="48" font-family="Helvetica"><tspan x="0" y="0">O</tspan></text>
        <text id="V" transform="translate(144.874)" fill="#fff" font-size="48" font-family="Helvetica"><tspan x="0" y="0">V</tspan></text>
        <text id="A" transform="translate(174.898)" fill="#fff" font-size="48" font-family="Helvetica"><tspan x="0" y="0">A</tspan></text>
        <text id="T" transform="translate(204.922)" fill="#fff" font-size="48" font-family="Helvetica"><tspan x="0" y="0">T</tspan></text>
        <text id="I" transform="translate(235.79)" fill="#fff" font-size="48" font-family="Helvetica"><tspan x="0" y="0">I</tspan></text>
        <text id="O-2" data-name="O" transform="translate(250.675)" fill="#fff" font-size="48" font-family="Helvetica"><tspan x="0" y="0">O</tspan></text>
        <text id="N-2" data-name="N" transform="translate(289.56)" fill="#fff" font-size="48" font-family="Helvetica"><tspan x="0" y="0">N</tspan></text>
        <text id="S" transform="translate(325.771)" fill="#fff" font-size="48" font-family="Helvetica"><tspan x="0" y="0">S</tspan></text>
      </g>
    </g>
  </g>
</svg>
